<svg width="29" height="29" viewBox="0 0 29 29" fill="none" xmlns="http://www.w3.org/2000/svg">
<g clip-path="url(#clip0_51_15)">
<path d="M26.0911 0H2.77893C1.24417 0 0 1.24417 0 2.77893V26.0911C0 27.6258 1.24417 28.87 2.77893 28.87H26.0911C27.6258 28.87 28.87 27.6258 28.87 26.0911V2.77893C28.87 1.24417 27.6258 0 26.0911 0Z" fill="#485992"/>
<path fill-rule="evenodd" clip-rule="evenodd" d="M20.2244 12.1964V10.3438C20.2244 9.41751 20.842 9.26312 21.1508 9.26312H23.9297V5.09473H20.2244C16.0561 5.09473 15.1297 8.18243 15.1297 10.035V12.1964H12.814V16.9824H15.2841V28.87H19.9157V16.9824H23.4665L23.6209 15.1298L23.9297 12.1964H20.2244Z" fill="#FEFEFE"/>
</g>
<defs>
<clipPath id="clip0_51_15">
<rect width="28.87" height="28.87" fill="white"/>
</clipPath>
</defs>
</svg>
