<svg width="29" height="29" viewBox="0 0 29 29" fill="none" xmlns="http://www.w3.org/2000/svg">
<g clip-path="url(#clip0_51_10)">
<path d="M22.39 0H6.48C2.90119 0 0 2.90119 0 6.48V22.39C0 25.9688 2.90119 28.87 6.48 28.87H22.39C25.9688 28.87 28.87 25.9688 28.87 22.39V6.48C28.87 2.90119 25.9688 0 22.39 0Z" fill="#00C7FF"/>
<path fill-rule="evenodd" clip-rule="evenodd" d="M11.74 18.1099C11.058 18.093 10.3981 17.8645 9.85162 17.456C9.30518 17.0475 8.89925 16.4792 8.69001 15.8299C9.15439 15.9327 9.63564 15.9327 10.1 15.8299C9.66082 15.7267 9.24764 15.534 8.88631 15.2638C8.52498 14.9937 8.22326 14.6519 8.00001 14.2599C7.67344 13.7355 7.50665 13.1274 7.52001 12.5099C7.96827 12.7566 8.46859 12.8937 8.98001 12.9099C8.29367 12.4375 7.8114 11.723 7.63001 10.9099C7.44663 10.1016 7.57899 9.25378 8.00001 8.53986C8.82375 9.55551 9.85055 10.3879 11.0146 10.9837C12.1787 11.5795 13.4544 11.9256 14.76 11.9999C14.76 11.8699 14.76 11.7599 14.71 11.6399C14.6201 10.9592 14.746 10.2675 15.07 9.66224C15.394 9.05695 15.8998 8.56859 16.516 8.26598C17.1323 7.96337 17.828 7.86177 18.505 7.97549C19.1821 8.08921 19.8064 8.41252 20.29 8.89986C20.311 8.92302 20.338 8.93994 20.368 8.94876C20.398 8.95758 20.4298 8.95796 20.46 8.94986C21.1307 8.80722 21.7751 8.56094 22.37 8.21986C22.1311 8.95279 21.6474 9.58126 21 9.99986C21.6312 9.9297 22.2482 9.7645 22.83 9.50986L22.5 9.99986C22.1532 10.4257 21.7532 10.8055 21.31 11.1299C21.2935 11.1405 21.2802 11.1554 21.2714 11.173C21.2626 11.1906 21.2586 11.2102 21.26 11.2299C21.2792 11.7173 21.2592 12.2056 21.2 12.6899C21.0726 13.702 20.7857 14.6875 20.35 15.6099C19.9086 16.5659 19.3103 17.4413 18.58 18.1999C17.3625 19.47 15.7911 20.3445 14.07 20.7099C13.4683 20.8406 12.8556 20.9142 12.24 20.9299C10.3918 20.993 8.56694 20.502 7.00001 19.5199L6.92001 19.4699C8.02891 19.5895 9.15007 19.4278 10.18 18.9999C10.7385 18.7765 11.2635 18.477 11.74 18.1099Z" fill="white"/>
</g>
<defs>
<clipPath id="clip0_51_10">
<rect width="28.87" height="28.87" fill="white"/>
</clipPath>
</defs>
</svg>
